<svg id="Группа_4" data-name="Группа 4" xmlns="http://www.w3.org/2000/svg" width="13.31" height="24.62" viewBox="0 0 13.31 24.62">
  <defs>
    <style>
      .cls-1 {
        fill: #1292ee;
        fill-rule: evenodd;
      }
    </style>
  </defs>
  <path id="Прямоугольник_555" data-name="Прямоугольник 555" class="cls-1" d="M1578.29,1807.02a1,1,0,0,1,0-1.41l11.32-11.32a1,1,0,0,1,1.41,0,1.008,1.008,0,0,1,0,1.42l-11.31,11.31A1.008,1.008,0,0,1,1578.29,1807.02Z" transform="translate(-1578 -1782.69)"/>
  <path id="Прямоугольник_555_копия" data-name="Прямоугольник 555 копия" class="cls-1" d="M1589.61,1795.71l-11.32-11.32a1,1,0,0,1,0-1.41,1.008,1.008,0,0,1,1.42,0l11.31,11.31a1.008,1.008,0,0,1,0,1.42A1,1,0,0,1,1589.61,1795.71Z" transform="translate(-1578 -1782.69)"/>
</svg>
