<svg xmlns="http://www.w3.org/2000/svg" width="1000" height="1000" viewBox="0 0 1000 1000"><defs><clipPath id="dlvva"><path fill="#fff" d="M500 0c276.142 0 500 223.858 500 500s-223.858 500-500 500S0 776.142 0 500 223.858 0 500 0z"/></clipPath><clipPath id="dlvvb"><path fill="#fff" d="M258.5 930a7.5 7.5 0 1 1 0 15 7.5 7.5 0 0 1 0-15z"/></clipPath></defs><g><g><path fill="none" stroke="#63717f" stroke-dasharray="10 5" stroke-miterlimit="50" stroke-width="2" d="M500 0c276.142 0 500 223.858 500 500s-223.858 500-500 500S0 776.142 0 500 223.858 0 500 0z" clip-path="url(&quot;#dlvva&quot;)"/></g><g><path fill="#fff" d="M258.5 930a7.5 7.5 0 1 1 0 15 7.5 7.5 0 0 1 0-15z"/><path fill="none" stroke="#8bdefe" stroke-linejoin="round" stroke-miterlimit="50" stroke-width="8" d="M258.5 930a7.5 7.5 0 1 1 0 15 7.5 7.5 0 0 1 0-15z" clip-path="url(&quot;#dlvvb&quot;)"/></g></g></svg>