<svg xmlns="http://www.w3.org/2000/svg" width="700" height="708" viewBox="0 0 700 708"><defs><clipPath id="itala"><path fill="#fff" d="M350 8c193.3 0 350 156.7 350 350S543.3 708 350 708 0 551.3 0 358 156.7 8 350 8z"/></clipPath><clipPath id="italb"><path fill="#fff" d="M43.113 535.515l18.682 6.148"/></clipPath><clipPath id="italc"><path fill="#fff" d="M47.5 548.85l6.135-18.646"/></clipPath><clipPath id="itald"><path fill="#fff" d="M384.69 1.27l9.634 16.073"/></clipPath><clipPath id="itale"><path fill="#fff" d="M397.027 6.55l-16.073 9.633"/></clipPath></defs><g><g><path fill="none" stroke="#63717f" stroke-dasharray="10 5" stroke-miterlimit="50" stroke-width="2" d="M350 8c193.3 0 350 156.7 350 350S543.3 708 350 708 0 551.3 0 358 156.7 8 350 8z" clip-path="url(&quot;#itala&quot;)"/></g><g><path fill="none" stroke="#2ed47d" stroke-linejoin="round" stroke-miterlimit="50" stroke-width="6" d="M43.113 535.515l18.682 6.148" clip-path="url(&quot;#italb&quot;)"/></g><g><path fill="none" stroke="#2ed47d" stroke-linejoin="round" stroke-miterlimit="50" stroke-width="6" d="M47.5 548.85l6.135-18.646" clip-path="url(&quot;#italc&quot;)"/></g><g><path fill="none" stroke="#dea1ff" stroke-linejoin="round" stroke-miterlimit="50" stroke-width="6" d="M384.69 1.27l9.634 16.073" clip-path="url(&quot;#itald&quot;)"/></g><g><path fill="none" stroke="#dea1ff" stroke-linejoin="round" stroke-miterlimit="50" stroke-width="6" d="M397.027 6.55l-16.073 9.633" clip-path="url(&quot;#itale&quot;)"/></g></g></svg>